HIERARCHY
ROOT pelvis
{
  OFFSET 0 100 0
  CHANNELS 6 Xposition Yposition Zposition Zrotation Xrotation Yrotation
  JOINT pelvis_right_femur
  {
    OFFSET -10.78128 -3.44521 -0.5502486
    CHANNELS 3 Zrotation Xrotation Yrotation
    JOINT right_femur_tibia
    {
      OFFSET -0.8047443 -44.0398 -0.1307829
      CHANNELS 3 Zrotation Xrotation Yrotation
      JOINT right_tibia_foot
      {
        OFFSET 3.006224 -47.83518 -5
        CHANNELS 3 Zrotation Xrotation Yrotation
        End Site
        {
          OFFSET 0 -5 15
        }
      }
    }
  }
  JOINT pelvis_left_femur
  {
    OFFSET 10.78128 -3.44521 -0.5502486
    CHANNELS 3 Zrotation Xrotation Yrotation
    JOINT left_femur_tibia
    {
      OFFSET 0.8047443 -44.0398 -0.1307829
      CHANNELS 3 Zrotation Xrotation Yrotation
      JOINT left_tibia_foot
      {
        OFFSET -4.370144 -48.10324 -4.275266
        CHANNELS 3 Zrotation Xrotation Yrotation
        End Site
        {
          OFFSET 0 -5 15
        }
      }
    }
  }
  JOINT pelvis_spine1
  {
    OFFSET 0 6.468898 -3.129235
    CHANNELS 3 Zrotation Xrotation Yrotation
    JOINT spine1
    {
      OFFSET 0 23.15396 4.99043
      CHANNELS 3 Zrotation Xrotation Yrotation
      JOINT spine2
      {
        OFFSET 0 20.79997 -5.064912
        CHANNELS 3 Zrotation Xrotation Yrotation
        JOINT neck
        {
          OFFSET 0 14.38658 9.616178
          CHANNELS 3 Zrotation Xrotation Yrotation
          End Site
          {
            OFFSET 0 20 0
          }
        }
      }
      JOINT right_manubrium
      {
        OFFSET -5.722621 16.35077 3.967754
        CHANNELS 3 Zrotation Xrotation Yrotation
        JOINT right_clavicle
        {
          OFFSET -13.16364 1.694482 -4.693211
          CHANNELS 3 Zrotation Xrotation Yrotation
          JOINT right_humerus
          {
            OFFSET -28.5034 -0.3100689 -2.792744
            CHANNELS 3 Zrotation Xrotation Yrotation
            JOINT right_radius
            {
              OFFSET -25.15693 0.02248979 -1.271978
              CHANNELS 3 Zrotation Xrotation Yrotation
              End Site
              {
                OFFSET -15 0 0
              }
            }
          }
        }
      }
      JOINT left_manubrium
      {
        OFFSET 5.722621 16.35077 3.967754
        CHANNELS 3 Zrotation Xrotation Yrotation
        JOINT left_clavicle
        {
          OFFSET 13.16364 1.694482 -4.693211
          CHANNELS 3 Zrotation Xrotation Yrotation
          JOINT left_humerus
          {
            OFFSET 29.39168 -1.063119 -2.237045
            CHANNELS 3 Zrotation Xrotation Yrotation
            JOINT left_radius
            {
              OFFSET 24.59957 -0.9528479 0.9047498
              CHANNELS 3 Zrotation Xrotation Yrotation
              End Site
              {
                OFFSET 15 -0 -0
              }
            }
          }
        }
      }
    }
  }
}
MOTION
Frames: 21
Frame Time: 0.0416666666667
-514.8535 118.4288 2902.278 -3.713707 -5.605148 -31.61237 6.421218 -0.666928 3.585771 -0 11.75043 -0 -6.110436 -9.94416 -4.391454 -1.381481 -7.096427 -6.413926 -0 54.74633 -0 -5.464968 -5.041013 16.1749 1.404379 -2.981568 5.572823 0.4222331 15.60834 -6.600261 1.350766 21.75917 3.411303 1.496533 -21.64912 5.48174 -4.956774 -26.69531 11.84958 95.60937 15.6494 -17.73936 -0 0 16.9949 -19.13793 8.588598 8.335341 4.740964 -25.83066 -7.877553 -91.58422 12.09897 26.31502 0 0 -16.39365 13.81554 15.99776 -3.645564
-517.8021 118.9715 2907.148 -3.641852 -5.452438 -32.55852 5.999991 3.583542 3.06316 -0 9.858577 -0 -6.142018 -11.57054 -3.53452 -0.5574999 -11.66107 -5.806311 -0 48.02004 -0 -4.901173 -4.928255 16.94084 1.467307 -2.983337 6.211396 0.1211602 15.69863 -6.030057 1.35076 21.71529 3.257764 1.45361 -21.61311 5.324192 -4.983253 -27.7246 11.88882 94.62168 15.65484 -15.88613 -0 0 19.04599 -19.66091 8.555485 9.008972 4.446602 -25.00649 -7.689973 -92.92978 11.92998 28.95486 0 0 -13.90807 13.06516 16.08196 -2.663126
-520.6951 118.949 2912.172 -3.49851 -5.274852 -33.43776 5.413984 7.422796 2.315515 -0 8.201651 -0 -6.038154 -12.7196 -2.624892 0.2812952 -15.80669 -5.090199 -0 39.04088 -0 -4.25218 -5.31351 17.58756 1.488384 -2.937815 6.858769 -0.2038711 15.72506 -5.413501 1.362369 21.68802 3.125297 1.425354 -21.48706 5.180877 -4.926427 -28.65555 11.92499 93.49612 15.73586 -13.89948 -0 0 21.11573 -20.29851 8.575746 9.764772 4.151259 -24.07192 -7.453971 -94.2681 11.76985 31.49093 0 0 -11.31527 12.16962 16.06926 -1.519349
-523.5291 118.3655 2917.366 -3.315741 -5.117956 -34.20999 4.753117 10.75481 1.588558 -0 7.295471 -0 -5.821405 -13.47576 -1.766127 1.005425 -19.35003 -4.468337 -0 29.43067 -0 -3.563011 -5.978087 18.18659 1.458731 -2.835384 7.492304 -0.5443366 15.66906 -4.76542 1.390739 21.68288 3.01986 1.40947 -21.25481 5.063571 -4.776816 -29.43137 11.95399 92.24667 15.89043 -11.82665 -0 0 23.13173 -21.04938 8.658658 10.59093 3.859715 -23.03305 -7.16834 -95.5455 11.67486 33.81483 0 0 -8.704915 11.0994 15.93131 -0.1773536
-526.3013 117.3502 2922.702 -3.151022 -5.053317 -34.85455 4.07399 13.34685 1.090383 -0 7.749901 -0 -5.49043 -13.74948 -1.106711 1.438923 -21.93529 -4.121792 -0 21.05246 -0 -2.954091 -6.705177 18.72462 1.378221 -2.681282 8.037498 -0.8604908 15.52543 -4.159729 1.437266 21.70335 2.952592 1.401814 -20.93261 4.991858 -4.549896 -29.94749 11.96818 91.00731 16.09722 -9.902806 -0 0 24.8578 -21.8337 8.799853 11.39718 3.599704 -21.99426 -6.861604 -96.61013 11.71735 35.65195 0 0 -6.393659 9.928393 15.66294 1.274535
-529.0317 116.1382 2928.149 -3.071568 -5.166457 -35.35735 3.39115 15.00793 0.9259146 -0 10.08101 -0 -5.017219 -13.31976 -0.7863998 1.450162 -23.2333 -4.12077 -0 15.4064 -0 -2.58849 -7.326626 19.1156 1.256895 -2.498103 8.399796 -1.097963 15.314 -3.699041 1.495214 21.74754 2.937127 1.404222 -20.56831 4.979985 -4.278404 -30.10362 11.96292 89.97244 16.3438 -8.453345 -0 0 25.99303 -22.52514 8.982381 12.05105 3.416399 -21.12577 -6.584587 -97.26876 11.93327 36.68221 0 0 -4.778221 8.848745 15.30199 2.59846
-531.7622 114.9963 2933.702 -3.109003 -5.499166 -35.69878 2.689473 15.7385 1.06611 -0 14.39648 -0 -4.376516 -12.04625 -0.8540608 1.037141 -23.18283 -4.405368 -0 12.83696 -0 -2.554766 -7.795884 19.28813 1.113274 -2.315696 8.53449 -1.225661 15.07423 -3.4437 1.55255 21.80703 2.977056 1.422172 -20.21885 5.023596 -3.998065 -29.89323 11.94106 89.26944 16.62737 -7.667001 -0 0 26.39535 -23.02928 9.18199 12.46577 3.339657 -20.55199 -6.378993 -97.43045 12.28399 36.79067 0 0 -4.049867 8.049863 14.92026 3.557685
-534.5316 114.1457 2939.374 -3.236726 -6.014404 -35.85218 1.957234 15.6272 1.405694 -0 20.34187 -0 -3.578636 -10.00418 -1.262392 0.2886936 -21.94238 -4.885531 -0 12.621 -0 -2.804511 -8.191824 19.24455 0.9692704 -2.157241 8.472113 -1.251104 14.84463 -3.382074 1.600182 21.87061 3.058623 1.454339 -19.92614 5.103696 -3.740896 -29.41822 11.90915 88.90936 16.92866 -7.503872 -0 0 26.16536 -23.32259 9.373814 12.64013 3.361534 -20.28573 -6.25643 -97.16891 12.68835 36.1489 0 0 -4.10622 7.591418 14.58312 4.0813
-537.3564 113.7324 2945.163 -3.392349 -6.624886 -35.78783 1.203638 14.64738 1.837379 -0 27.38289 -0 -2.66547 -7.387828 -1.936284 -0.7124611 -19.63399 -5.529727 -0 13.73203 -0 -3.210018 -8.660868 19.0294 0.8414852 -2.033986 8.267466 -1.197036 14.64807 -3.473495 1.635037 21.93017 3.162883 1.493512 -19.70955 5.202623 -3.52962 -28.79561 11.8721 88.85194 17.21597 -7.834799 -0 0 25.48238 -23.42158 9.540497 12.612 3.456571 -20.28136 -6.21 -96.61327 13.08155 35.00461 0 0 -4.750927 7.436503 14.32375 4.221829
-540.2228 113.8259 2951.037 -3.501086 -7.217295 -35.47925 0.4691799 12.61239 2.276741 -0 34.92284 -0 -1.70922 -4.445137 -2.803553 -1.910521 -16.25638 -6.367595 -0 15.29221 -0 -3.619049 -9.36329 18.69738 0.7374264 -1.94928 7.949272 -1.076452 14.49266 -3.695006 1.65712 21.98253 3.279318 1.534294 -19.57438 5.312777 -3.375422 -28.08233 11.83182 89.07694 17.46538 -8.589648 -0 0 24.44101 -23.33921 9.674389 12.40362 3.609635 -20.50937 -6.23388 -95.83336 13.43211 33.48289 0 0 -5.882184 7.548985 14.15112 4.028172
-543.0831 114.4062 2956.913 -3.483339 -7.634254 -34.92096 -0.1464514 9.304796 2.654956 -0 42.011 -0 -0.8586986 -1.594596 -3.750093 -3.214778 -11.85509 -7.445533 -0 16.60124 -0 -3.851855 -10.42017 18.32805 0.661313 -1.906618 7.517503 -0.8886854 14.3831 -4.049223 1.666155 22.02652 3.404748 1.574158 -19.527 5.433168 -3.287382 -27.2886 11.78904 89.60551 17.65539 -9.779967 -0 0 23.04296 -23.06672 9.76943 12.00789 3.819433 -20.97792 -6.331101 -94.83713 13.71889 31.5912 0 0 -7.50772 7.932917 14.07006 3.496823
-545.8646 115.3353 2962.65 -3.278681 -7.676985 -34.15824 -0.4744048 4.70601 2.910366 -0 47.06524 -0 -0.3765076 0.506757 -4.569386 -4.433157 -6.770083 -8.752777 -0 17.15738 -0 -3.724923 -11.83498 18.02666 0.6202298 -1.913301 6.969147 -0.6299889 14.32824 -4.544518 1.661061 22.05984 3.534734 1.609547 -19.58073 5.562344 -3.281035 -26.42866 11.7453 90.47461 17.74934 -11.43218 -0 0 21.28121 -22.58506 9.81349 11.40904 4.08504 -21.70697 -6.508554 -93.6331 13.91235 29.33593 0 0 -9.652697 8.607258 14.08814 2.607842
-548.5128 116.3564 2968.11 -2.898036 -7.20471 -33.30024 -0.3572365 -0.809968 2.964872 -0 48.26408 -0 -0.5330475 1.271877 -5.028264 -5.294631 -1.685178 -10.11175 -0 16.75887 -0 -3.180136 -13.44676 17.83236 0.6212226 -1.974044 6.327388 -0.3089485 14.3349 -5.164675 1.642217 22.07955 3.659034 1.634331 -19.74251 5.69446 -3.369393 -25.55239 11.70376 91.67172 17.70152 -13.48599 -0 0 19.23274 -21.90211 9.792935 10.6232 4.390806 -22.67576 -6.762082 -92.28996 13.98579 26.82939 0 0 -12.2409 9.545838 14.20203 1.401499
-551.046 117.1642 2973.248 -2.439982 -6.266574 -32.47977 0.2019436 -6.613554 2.707813 -0 44.71502 -0 -1.36969 0.7139231 -5.056696 -5.612941 2.750382 -11.17363 -0 15.5084 -0 -2.402065 -15.02927 17.6116 0.6580276 -2.078541 5.641002 0.0491764 14.39173 -5.858964 1.613039 22.08634 3.770885 1.647615 -19.98936 5.82263 -3.534877 -24.71149 11.66805 93.08601 17.50713 -15.76331 -0 0 17.05215 -21.08292 9.711056 9.72001 4.7107 -23.79706 -7.065163 -90.91634 13.93902 24.25047 0 0 -15.0703 10.65706 14.37886 -0.004062377
-553.5499 117.5151 2978.128 -2.017512 -5.068391 -31.79182 1.023452 -12.25391 2.08581 -0 37.18309 -0 -2.657814 -0.581917 -4.800651 -5.432273 6.380477 -11.67834 -0 13.75623 -0 -1.683133 -16.45298 17.16706 0.7074623 -2.202775 4.946434 0.4192136 14.46916 -6.575115 1.577394 22.08633 3.878544 1.66125 -20.27228 5.945132 -3.724589 -23.90028 11.64063 94.56783 17.22858 -18.08468 -0 0 14.84838 -20.21929 9.593989 8.782354 5.031892 -24.97168 -7.381935 -89.57314 13.78657 21.68267 0 0 -17.94925 11.85535 14.56534 -1.510146
-556.1282 117.2964 2982.854 -1.696925 -3.838548 -31.27389 1.895322 -17.5713 1.185788 -0 27.52232 -0 -4.090379 -1.955358 -4.475074 -4.958713 9.463936 -11.62685 -0 12.09865 -0 -1.228699 -17.67696 16.41221 0.7488258 -2.326643 4.259057 0.7862356 14.54267 -7.282023 1.537663 22.08548 3.993383 1.687923 -20.55096 6.063055 -3.892844 -23.09003 11.62205 96.01694 16.93353 -20.34914 -0 0 12.66346 -19.37654 9.467957 7.86369 5.353702 -26.13774 -7.687679 -88.27712 13.53817 19.13176 0 0 -20.77128 13.09547 14.72038 -3.070955
-558.8734 116.5433 2987.541 -1.517407 -2.803279 -30.91794 2.653611 -22.33724 0.18489 -0 17.91748 -0 -5.375766 -2.874993 -4.255241 -4.420198 12.22404 -11.13972 -0 11.3351 -0 -1.168923 -18.61563 15.37177 0.7782827 -2.440152 3.619056 1.127619 14.60505 -7.936494 1.497236 22.08481 4.109075 1.72546 -20.80449 6.170772 -4.027772 -22.32291 11.61156 97.34311 16.64951 -22.42315 -0 0 10.62501 -18.60832 9.345288 7.020706 5.657573 -27.22134 -7.96296 -87.10355 13.22386 16.74436 0 0 -23.37039 14.29158 14.8306 -4.579497
-561.8497 115.4374 2992.31 -1.510575 -2.189916 -30.68553 3.199135 -26.02122 -0.6898515 -0 10.56634 -0 -6.245251 -2.984949 -4.25128 -4.009895 14.58482 -10.35826 -0 12.30896 -0 -1.575352 -19.0856 14.16959 0.8064872 -2.539689 3.108907 1.403975 14.66344 -8.464864 1.461569 22.08077 4.199664 1.756954 -21.02281 6.253117 -4.14394 -21.72971 11.60809 98.41926 16.38005 -24.07774 -0 0 9.001147 -17.9806 9.229089 6.338879 5.898819 -28.10452 -8.185896 -86.20464 12.91651 14.86748 0 0 -25.44732 15.28579 14.91143 -5.828378
-565.0784 114.2664 2997.268 -1.684804 -2.134588 -30.53108 3.544031 -28.02327 -1.211155 -0 6.913919 -0 -6.547233 -2.267308 -4.492464 -3.827487 16.22308 -9.433251 -0 15.58147 -0 -2.40323 -18.88871 13.01388 0.8461429 -2.625666 2.797396 1.5838 14.72931 -8.808591 1.434863 22.06934 4.240993 1.765933 -21.20374 6.296409 -4.261168 -21.42808 11.61064 99.14817 16.12918 -25.1332 -0 0 8.016408 -17.53993 9.119934 5.883503 6.039514 -28.69551 -8.343253 -85.69278 12.69312 13.79692 0 0 -26.76005 15.95158 14.99254 -6.649749
-568.5377 113.3293 3002.474 -2.009829 -2.58326 -30.43327 3.819173 -28.08161 -1.252138 -0 6.753565 -0 -6.360318 -1.129955 -4.916969 -3.821016 16.78377 -8.490713 -0 21.17188 -0 -3.485936 -17.93143 12.10884 0.8999219 -2.699588 2.691462 1.664072 14.80784 -8.962433 1.416819 22.04962 4.230363 1.751149 -21.34911 6.297939 -4.383402 -21.43306 11.61883 99.5218 15.91306 -25.57929 -0 0 7.693201 -17.28883 9.020243 5.659262 6.077589 -28.98845 -8.436829 -85.56371 12.57309 13.56289 0 0 -27.28339 16.28562 15.09051 -7.039707
-572.1698 112.8527 3007.9 -2.430453 -3.338015 -30.41474 4.190572 -26.30599 -0.7985594 -0 8.646726 -0 -5.939727 -0.2295403 -5.397619 -3.83698 16.01289 -7.639297 -0 28.7083 -0 -4.603735 -16.23674 11.60876 0.9623187 -2.762128 2.765002 1.65614 14.89883 -8.947708 1.403978 22.02273 4.179137 1.72312 -21.45957 6.2604 -4.49956 -21.69988 11.63384 99.57349 15.75585 -25.48794 -0 0 7.944699 -17.21256 8.934091 5.642678 6.032106 -29.02147 -8.473319 -85.76298 12.52196 14.04977 0 0 -27.09867 16.35921 15.20388 -7.094932
